<?xml version="1.0" standalone="no"?>
<svg version="1.0" xmlns="http://www.w3.org/2000/svg"
 width="0.000000pt" viewBox="0 180 476 106"
 preserveAspectRatio="xMidYMid meet">

<g transform="translate(0.000000,476.000000) scale(0.100000,-0.100000)"
fill="#000000" stroke="none">
<!-- <path d="M4046 2849 c-36 -43 -35 -91 3 -130 50 -50 121 -37 147 28 29 68 -14
133 -87 133 -29 0 -43 -7 -63 -31z m119 -10 c25 -24 25 -81 0 -109 -41 -46
-125 -12 -125 51 0 79 69 111 125 58z"/> -->
<!-- <path d="M4081 2783 c1 -32 4 -48 6 -35 5 28 24 28 41 1 7 -12 16 -18 19 -15
3 3 0 12 -6 20 -9 11 -9 19 0 34 18 29 5 52 -31 52 l-30 0 1 -57z m54 22 c0
-5 -10 -11 -22 -13 -16 -2 -23 2 -23 13 0 11 7 15 23 13 12 -2 22 -7 22 -13z"/> -->
<path d="M1893 2856 c-91 -30 -169 -101 -216 -199 l-26 -52 0 118 -1 117 -65
0 -65 0 0 -390 0 -390 69 0 69 0 5 178 c3 128 9 192 22 232 56 179 151 270
281 270 153 -1 243 -106 304 -355 35 -143 75 -226 139 -293 120 -126 307 -148
439 -52 52 37 89 86 118 157 l24 58 0 -97 0 -98 65 0 65 0 0 390 0 390 -68 0
-69 0 -6 -187 c-9 -272 -46 -396 -144 -482 -91 -81 -206 -80 -298 1 -55 49
-95 131 -125 258 -64 270 -206 424 -401 436 -47 2 -89 -1 -116 -10z"/>
<path d="M800 2849 c-113 -22 -185 -107 -178 -211 6 -88 21 -104 276 -286 56
-39 92 -89 92 -125 0 -9 -10 -28 -23 -43 -46 -53 -194 -37 -300 32 -22 14 -40
24 -41 22 -1 -2 -12 -20 -24 -40 l-21 -38 32 -24 c49 -37 106 -64 172 -81 196
-51 355 38 355 200 0 101 -36 145 -217 266 -129 87 -153 111 -153 155 0 49 37
74 111 74 60 0 94 -10 141 -43 16 -10 32 -15 38 -12 15 10 42 64 35 74 -11 19
-96 62 -151 76 -64 17 -78 17 -144 4z"/>
<path d="M3442 2843 c-62 -22 -146 -103 -182 -176 -81 -166 -56 -403 56 -526
54 -60 113 -92 183 -98 125 -12 202 21 266 112 l35 49 0 -72 0 -72 70 0 70 0
0 390 0 390 -70 0 -70 0 0 -77 0 -78 -30 47 c-69 110 -202 156 -328 111z m230
-142 c36 -23 53 -44 79 -97 31 -62 34 -75 34 -164 0 -88 -3 -102 -30 -155 -42
-83 -94 -118 -172 -118 -67 0 -107 18 -150 67 -90 102 -90 331 0 433 62 71
159 84 239 34z"/>
<path d="M1230 2450 l0 -390 70 0 70 0 0 390 0 390 -70 0 -70 0 0 -390z"/>
</g>
</svg>
